<svg xmlns="http://www.w3.org/2000/svg" xmlns:xlink="http://www.w3.org/1999/xlink" version="1.1" x="0px" y="0px" width="100px" height="100px" viewBox="0 0 100 100" enable-background="new 0 0 100 100" xml:space="preserve">
<g id="Captions">
</g>
<g id="Your_Icon">
	<g>
		<path d="M49.755,0C25.839,0,7.106,10.274,7.106,23.39c0,0.334,0.024,0.666,0.05,0.999h-0.05c0,0-0.012,7.371-0.053,16.711    C7.029,53.756,6.991,70.03,6.991,76.531c0,13.104,18.669,23.379,42.521,23.379c23.774,0,42.393-10.275,42.393-23.379    c0-3.569,0.051-10.262,0.115-17.708c0.153-15.817,0.37-35.113,0.385-35.395c0-0.012,0-0.025,0-0.039    C92.404,10.274,73.67,0,49.755,0z M12.889,76.531c0-1.881,0-4.593,0.013-7.805c6.682,7.177,20.513,12.002,36.854,12.002    c15.881,0,29.391-4.555,36.275-11.4c-0.011,2.969-0.024,5.45-0.024,7.203c0,9.47-16.712,17.479-36.494,17.479    C29.664,94.011,12.889,86.001,12.889,76.531z M49.755,5.911c0.013,0,0.013,0,0.025,0c19.896,0.014,36.711,7.998,36.711,17.479    v0.014c0,1.983-0.743,3.902-2.099,5.693c-0.281,0.397-0.614,0.781-0.986,1.165c-0.331,0.372-0.689,0.73-1.086,1.075    c-0.346,0.32-0.705,0.627-1.074,0.909c-0.397,0.319-0.808,0.627-1.241,0.921c-0.397,0.269-0.807,0.538-1.241,0.806    c-2.381,1.471-5.248,2.75-8.459,3.8c-5.899,1.946-13.001,3.097-20.55,3.097c-7.55,0-14.653-1.15-20.551-3.097    c-3.212-1.05-6.077-2.342-8.457-3.8c-0.437-0.268-0.845-0.538-1.242-0.806c-0.435-0.294-0.845-0.602-1.24-0.921    c-0.372-0.294-0.729-0.589-1.076-0.909c-0.397-0.345-0.756-0.704-1.088-1.075c-0.37-0.383-0.689-0.767-0.973-1.165    c-1.369-1.791-2.111-3.722-2.111-5.707C13.017,13.908,29.844,5.911,49.755,5.911z M12.901,63.736    c0.014-3.827,0.025-8.023,0.025-12.221c0.04-0.114,0.078-0.244,0.104-0.357c1.241,1.305,2.714,2.533,4.401,3.659    c7.474,5.028,19.079,8.202,32.323,8.202c13.243,0,24.85-3.174,32.322-8.202c1.561-1.037,2.943-2.176,4.12-3.365    c-0.052,4.145-0.089,8.292-0.129,12.055c0,0.383,0,0.741,0,1.112c-5.078,7.549-19.652,13.153-36.313,13.153    c-16.968,0-31.772-5.822-36.583-13.575C13.069,64.043,12.979,63.89,12.901,63.736z M13.234,35.624    c0.678,0.627,1.421,1.228,2.202,1.804c0.409,0.306,0.832,0.601,1.268,0.895c0.408,0.269,0.817,0.537,1.253,0.807    c2.137,1.304,4.541,2.47,7.19,3.48c6.91,2.636,15.368,4.171,24.607,4.171c9.238,0,17.696-1.535,24.605-4.171    c2.636-1.01,5.043-2.176,7.191-3.48c0.423-0.27,0.845-0.525,1.256-0.807c0.447-0.294,0.87-0.589,1.279-0.895    c0.779-0.577,1.521-1.177,2.199-1.792c0.026,0.039,0.053,0.09,0.076,0.127c-0.023,1.984-0.05,4.107-0.076,6.334    c-0.013,1.292-0.025,2.61-0.037,3.954c0,0.192,0,0.385,0,0.576c-0.27,0.422-0.562,0.832-0.896,1.241    c-1.218,1.523-2.817,2.957-4.749,4.262c-7.024,4.773-18.349,7.934-30.85,7.934c-12.502,0-23.827-3.16-30.852-7.934    c-1.934-1.305-3.531-2.738-4.747-4.262c-0.385-0.486-0.729-0.972-1.037-1.471c-0.063-0.102-0.127-0.205-0.178-0.308    c0.012-1.138,0.012-2.264,0.012-3.364c0.014-2.355,0.014-4.594,0.026-6.667C13.056,35.917,13.131,35.763,13.234,35.624z"/>
	</g>
</g>
</svg>