<svg xmlns="http://www.w3.org/2000/svg" xmlns:xlink="http://www.w3.org/1999/xlink" version="1.1" width="96" height="96" viewBox="0 0 96 96">
<path d="M76 96h-68c-1.104 0-2-0.9-2-2v-69.672c0-0.492 0.18-0.964 0.508-1.332l20-22.328c0.38-0.424 0.92-0.668 1.492-0.668h48c1.1 0 2 0.896 2 2v46c0 1.104-0.9 2-2 2s-2-0.896-2-2v-44h-45.104l-18.896 21.092v66.908h64v-8c0-1.1 0.9-2 2-2s2 0.9 2 2v10c0 1.1-0.9 2-2 2z" fill="#000000"/>
	<path d="M28 28h-18c-1.104 0-2-0.896-2-2s0.896-2 2-2h16v-20c0-1.104 0.896-2 2-2s2 0.896 2 2v22c0 1.104-0.896 2-2 2z" fill="#000000"/>
	<path d="M84 84h-48c-3.308 0-6-2.692-6-6v-24c0-3.308 2.692-6 6-6h48c3.308 0 6 2.692 6 6v24c0 3.308-2.692 6-6 6zM36 52c-1.104 0-2 0.9-2 2v24c0 1.1 0.896 2 2 2h48c1.1 0 2-0.9 2-2v-24c0-1.1-0.9-2-2-2h-48z" fill="#000000"/>
	<path d="M47.316 65.796l-4.96-7.312h2.024c0.148 0 0.252 0.024 0.324 0.080 0.072 0.052 0.132 0.116 0.188 0.208l3.92 6.020c0.048-0.148 0.124-0.308 0.22-0.48l3.704-5.496c0.064-0.1 0.128-0.176 0.204-0.248 0.072-0.060 0.164-0.084 0.264-0.084h1.94l-4.98 7.216 5.148 7.812h-2.012c-0.156 0-0.272-0.044-0.364-0.12-0.084-0.080-0.156-0.168-0.212-0.264l-4.032-6.3c-0.048 0.148-0.112 0.284-0.188 0.416l-3.92 5.88c-0.064 0.1-0.136 0.192-0.216 0.268-0.080 0.084-0.192 0.12-0.34 0.12h-1.888l5.176-7.716z" fill="#000000"/>
	<path d="M59.344 71.804h6.5v1.708h-8.536v-15.024h2.036v13.316z" fill="#000000"/>
	<path d="M75.78 60.836c-0.064 0.1-0.128 0.184-0.204 0.236-0.068 0.056-0.156 0.084-0.268 0.084-0.12 0-0.252-0.060-0.416-0.176-0.156-0.12-0.356-0.252-0.592-0.4-0.244-0.14-0.532-0.268-0.876-0.392-0.336-0.116-0.752-0.176-1.232-0.176-0.448 0-0.856 0.072-1.204 0.184-0.348 0.12-0.64 0.288-0.88 0.5-0.236 0.212-0.412 0.456-0.524 0.748-0.116 0.284-0.18 0.584-0.18 0.916 0 0.416 0.1 0.768 0.312 1.044 0.204 0.276 0.476 0.516 0.816 0.712 0.336 0.192 0.724 0.364 1.152 0.508 0.428 0.14 0.876 0.288 1.324 0.444s0.896 0.328 1.32 0.516c0.424 0.192 0.816 0.432 1.152 0.732 0.34 0.292 0.608 0.652 0.82 1.084 0.208 0.42 0.312 0.944 0.312 1.572 0 0.66-0.112 1.272-0.336 1.848-0.228 0.584-0.556 1.084-0.98 1.508-0.428 0.424-0.96 0.76-1.584 1.004s-1.336 0.368-2.132 0.368c-0.976 0-1.86-0.176-2.664-0.528s-1.484-0.832-2.052-1.432l0.588-0.96c0.056-0.084 0.124-0.14 0.204-0.196 0.080-0.052 0.168-0.080 0.264-0.080 0.148 0 0.32 0.080 0.5 0.236 0.188 0.164 0.424 0.336 0.712 0.524 0.28 0.188 0.624 0.36 1.028 0.516s0.904 0.22 1.48 0.22c0.484 0 0.916-0.072 1.288-0.2 0.38-0.132 0.696-0.32 0.96-0.572 0.26-0.24 0.46-0.528 0.6-0.864 0.14-0.332 0.212-0.708 0.212-1.124 0-0.452-0.1-0.824-0.312-1.116-0.204-0.284-0.476-0.532-0.812-0.728s-0.72-0.36-1.148-0.496c-0.424-0.136-0.868-0.276-1.32-0.416-0.448-0.144-0.892-0.312-1.32-0.5-0.428-0.192-0.812-0.432-1.148-0.744-0.336-0.3-0.608-0.676-0.812-1.128-0.212-0.448-0.312-1.008-0.312-1.672 0-0.532 0.1-1.044 0.312-1.54 0.204-0.5 0.504-0.928 0.9-1.324 0.392-0.384 0.876-0.692 1.448-0.916 0.576-0.24 1.24-0.344 1.988-0.344 0.84 0 1.6 0.132 2.296 0.4 0.692 0.268 1.296 0.652 1.812 1.156l-0.492 0.964z" fill="#000000"/>
</svg>